USFL
nRows=477
nColumns=2
inDegrees=yes
endheader
time	tib_ant_r	
3.59274	 58.083295	
3.62601	 58.072463	
3.65927	 58.074873	
3.69254	 58.085837	
3.72581	 58.074367	
3.75907	 58.082167	
3.79234	 58.080324	
3.8256	 58.075594	
3.85887	 58.061929	
3.89214	 58.077022	
3.9254	 58.069811	
3.95867	 58.072215	
3.99194	 58.089885	
4.0252	 58.081830	
4.05847	 58.078837	
4.09173	 58.085178	
4.125	 58.087375	
4.15827	 58.093346	
4.19153	 58.092408	
4.2248	 58.096362	
4.25806	 58.100004	
4.29133	 58.105975	
4.3246	 58.096763	
4.35786	 58.093653	
4.39113	 58.100305	
4.4244	 58.103120	
4.45766	 58.109094	
4.49093	 58.107591	
4.52419	 58.109731	
4.55746	 58.117480	
4.59073	 58.116608	
4.62399	 58.101809	
4.65726	 58.087390	
4.69052	 58.080874	
4.72379	 58.059355	
4.75706	 58.054030	
4.79032	 58.044473	
4.82359	 58.020761	
4.85685	 58.028703	
4.89012	 58.031286	
4.92339	 58.040805	
4.95665	 58.037051	
4.98992	 58.031688	
5.02319	 58.031678	
5.05645	 58.041778	
5.08972	 58.044810	
5.12298	 58.068514	
5.15625	 58.074456	
5.18952	 58.059475	
5.22278	 58.063290	
5.25605	 58.071932	
5.28931	 58.056137	
5.32258	 58.057029	
5.35585	 58.057848	
5.38911	 58.042118	
5.42238	 58.058646	
5.45565	 58.087462	
5.48891	 58.084379	
5.52218	 58.085273	
5.55544	 58.067933	
5.58871	 58.067529	
5.62198	 58.083466	
5.65524	 58.082064	
5.68851	 58.085260	
5.72177	 58.098587	
5.75504	 58.115110	
5.78831	 58.124179	
5.82157	 58.161050	
5.85484	 58.169746	
5.8881	 58.161820	
5.92137	 58.148057	
5.95464	 58.138680	
5.9879	 58.141809	
6.02117	 58.148341	
6.05444	 58.170749	
6.0877	 58.170034	
6.12097	 58.182102	
6.15423	 58.195452	
6.1875	 58.158433	
6.22077	 58.163509	
6.25403	 58.191296	
6.2873	 58.180745	
6.32056	 58.180951	
6.35383	 58.173336	
6.3871	 58.164633	
6.42036	 58.156279	
6.45363	 58.152539	
6.4869	 58.149521	
6.52016	 58.157246	
6.55343	 58.143884	
6.58669	 58.162290	
6.61996	 58.165654	
6.65323	 58.169732	
6.68649	 58.159300	
6.71976	 58.171856	
6.75302	 58.180381	
6.78629	 58.172922	
6.81956	 58.162038	
6.85282	 58.151169	
6.88609	 58.144814	
6.91935	 58.135532	
6.95262	 58.128966	
6.98589	 58.140552	
7.01915	 58.144002	
7.05242	 58.126749	
7.08569	 58.126259	
7.11895	 58.104844	
7.15222	 58.124488	
7.18548	 58.125879	
7.21875	 58.138247	
7.25202	 58.163082	
7.28528	 58.165385	
7.31855	 58.181676	
7.35181	 58.192569	
7.38508	 58.210819	
7.41835	 58.222259	
7.45161	 58.222125	
7.48488	 58.228221	
7.51815	 58.238990	
7.55141	 58.237718	
7.58468	 58.244300	
7.61794	 58.246849	
7.65121	 58.245061	
7.68448	 58.248532	
7.71774	 58.248294	
7.75101	 58.251901	
7.78427	 58.255019	
7.81754	 58.256255	
7.85081	 58.257734	
7.88407	 58.245880	
7.91734	 58.248782	
7.9506	 58.253600	
7.98387	 58.242584	
8.01714	 58.253346	
8.0504	 58.243045	
8.08367	 58.247869	
8.11694	 58.240857	
8.1502	 58.232771	
8.18347	 58.231694	
8.21673	 58.239059	
8.25	 58.235408	
8.28327	 58.248890	
8.31653	 58.249422	
8.3498	 58.251697	
8.38306	 58.252463	
8.41633	 58.254349	
8.4496	 58.242475	
8.48286	 58.266531	
8.51613	 58.264229	
8.5494	 58.297644	
8.58266	 58.282389	
8.61593	 57.893620	
8.64919	 57.887976	
8.68246	 57.896302	
8.71573	 57.885989	
8.74899	 57.885413	
8.78226	 57.885363	
8.81552	 57.899373	
8.84879	 57.897014	
8.88206	 57.898870	
8.91532	 57.899184	
8.94859	 57.886016	
8.98185	 57.937689	
9.01512	 57.941932	
9.04839	 57.944186	
9.08165	 57.946905	
9.11492	 57.906203	
9.14819	 57.916532	
9.18145	 57.962046	
9.21472	 57.932686	
9.24798	 57.917439	
9.28125	 57.911692	
9.31452	 57.903808	
9.34778	 57.890497	
9.38105	 57.900415	
9.41431	 57.898091	
9.44758	 57.904553	
9.48085	 57.909492	
9.51411	 57.913841	
9.54738	 57.921998	
9.58065	 57.937516	
9.61391	 57.935734	
9.64718	 57.965292	
9.68044	 58.008667	
9.71371	 57.988037	
9.74698	 57.995816	
9.78024	 58.011978	
9.81351	 58.030701	
9.84677	 58.009373	
9.88004	 58.017884	
9.91331	 58.019109	
9.94657	 58.022518	
9.97984	 58.010792	
10.0131	 58.037469	
10.0464	 58.027556	
10.0796	 58.033046	
10.1129	 58.053084	
10.1462	 58.061596	
10.1794	 58.056422	
10.2127	 58.049654	
10.246	 58.043527	
10.2792	 58.070568	
10.3125	 58.063007	
10.3458	 58.068419	
10.379	 58.067511	
10.4123	 58.084853	
10.4456	 58.067288	
10.4788	 58.064385	
10.5121	 58.080349	
10.5454	 58.071525	
10.5786	 58.029881	
10.6119	 58.058813	
10.6452	 58.069593	
10.6784	 58.074841	
10.7117	 58.070377	
10.745	 58.066108	
10.7782	 58.058577	
10.8115	 58.052733	
10.8448	 58.034447	
10.878	 58.050178	
10.9113	 58.063980	
10.9446	 58.063267	
10.9778	 58.068383	
11.0111	 58.050611	
11.0444	 58.027691	
11.0776	 58.043399	
11.1109	 58.027084	
11.1442	 58.033496	
11.1774	 58.027013	
11.2107	 58.014950	
11.244	 58.039910	
11.2772	 58.045534	
11.3105	 58.018960	
11.3437	 58.029008	
11.377	 58.063975	
11.4103	 58.055015	
11.4435	 58.073535	
11.4768	 58.075334	
11.5101	 58.049009	
11.5433	 58.060311	
11.5766	 58.049549	
11.6099	 58.056252	
11.6431	 58.056008	
11.6764	 58.056756	
11.7097	 58.055050	
11.7429	 58.055073	
11.7762	 58.062093	
11.8095	 58.066891	
11.8427	 58.077274	
11.876	 58.069806	
11.9093	 58.066821	
11.9425	 58.060243	
11.9758	 58.049259	
12.0091	 58.040972	
12.0423	 58.052541	
12.0756	 58.035530	
12.1089	 58.045125	
12.1421	 58.050090	
12.1754	 58.048798	
12.2087	 58.042119	
12.2419	 58.044041	
12.2752	 58.061051	
12.3085	 58.109034	
12.3417	 58.094058	
12.375	 58.127196	
12.4083	 58.137518	
12.4415	 58.124633	
12.4748	 58.129190	
12.5081	 58.114796	
12.5413	 58.099050	
12.5746	 58.032736	
12.6079	 58.047323	
12.6411	 58.033667	
12.6744	 58.027056	
12.7077	 58.033243	
12.7409	 58.037421	
12.7742	 58.025157	
12.8075	 58.036585	
12.8407	 58.067024	
12.874	 58.101058	
12.9073	 58.105363	
12.9405	 58.124425	
12.9738	 58.128400	
13.0071	 58.121121	
13.0403	 58.111481	
13.0736	 58.128953	
13.1069	 58.123304	
13.1401	 58.130217	
13.1734	 58.137583	
13.2067	 58.139662	
13.2399	 58.153289	
13.2732	 58.143974	
13.3065	 58.147821	
13.3397	 58.141832	
13.373	 58.152571	
13.4062	 58.149548	
13.4395	 58.170010	
13.4728	 58.187599	
13.506	 58.206800	
13.5393	 58.214830	
13.5726	 58.238587	
13.6058	 58.243421	
13.6391	 58.235546	
13.6724	 58.258650	
13.7056	 58.287624	
13.7389	 58.284817	
13.7722	 58.281651	
13.8054	 58.269708	
13.8387	 58.277910	
13.872	 58.283817	
13.9052	 58.281920	
13.9385	 58.290127	
13.9718	 58.278019	
14.005	 58.302342	
14.0383	 58.320618	
14.0716	 58.330658	
14.1048	 58.315572	
14.1381	 58.315854	
14.1714	 58.322011	
14.2046	 58.322276	
14.2379	 58.318980	
14.2712	 58.320795	
14.3044	 58.327339	
14.3377	 58.332147	
14.371	 58.348985	
14.4042	 58.333988	
14.4375	 58.330188	
14.4708	 58.316153	
14.504	 58.302740	
14.5373	 58.328189	
14.5706	 58.325701	
14.6038	 58.319766	
14.6371	 58.319005	
14.6704	 58.328852	
14.7036	 58.302402	
14.7369	 58.296190	
14.7702	 58.299413	
14.8034	 58.307125	
14.8367	 58.316987	
14.87	 58.313267	
14.9032	 58.318988	
14.9365	 58.325558	
14.9698	 58.319936	
15.003	 58.325623	
15.0363	 58.347016	
15.0696	 58.355531	
15.1028	 58.371289	
15.1361	 58.386292	
15.1694	 58.375703	
15.2026	 58.374840	
15.2359	 58.025675	
15.2692	 58.036753	
15.3024	 58.037876	
15.3357	 58.047792	
15.369	 58.042814	
15.4022	 58.045762	
15.4355	 58.077556	
15.4687	 58.089306	
15.502	 58.088467	
15.5353	 58.075062	
15.5685	 58.083865	
15.6018	 58.112523	
15.6351	 58.097855	
15.6683	 58.088225	
15.7016	 58.101710	
15.7349	 58.096024	
15.7681	 58.104502	
15.8014	 58.139570	
15.8347	 58.149789	
15.8679	 58.196263	
15.9012	 58.196416	
15.9345	 58.214918	
15.9677	 58.215860	
16.001	 58.221676	
16.0343	 58.225996	
16.0675	 58.236843	
16.1008	 58.237686	
16.1341	 58.245907	
16.1673	 58.260033	
16.2006	 58.251903	
16.2339	 58.245312	
16.2671	 58.235157	
16.3004	 58.221558	
16.3337	 58.238360	
16.3669	 58.247929	
16.4002	 58.252895	
16.4335	 58.256726	
16.4667	 58.257949	
16.5	 58.257776	
16.5333	 58.265677	
16.5665	 58.256224	
16.5998	 58.251521	
16.6331	 58.276917	
16.6663	 58.266725	
16.6996	 58.274534	
16.7329	 58.286197	
16.7661	 58.304122	
16.7994	 58.297981	
16.8327	 58.314211	
16.8659	 58.337373	
16.8992	 58.349162	
16.9325	 58.361106	
16.9657	 58.338132	
16.999	 58.338762	
17.0323	 58.352410	
17.0655	 58.343559	
17.0988	 58.347593	
17.1321	 58.348421	
17.1653	 58.317448	
17.1986	 58.318436	
17.2319	 58.308606	
17.2651	 58.270377	
17.2984	 58.263013	
17.3317	 58.265694	
17.3649	 58.248962	
17.3982	 58.253741	
17.4315	 58.240949	
17.4647	 58.254338	
17.498	 58.243055	
17.5312	 58.239465	
17.5645	 58.235198	
17.5978	 58.242546	
17.631	 58.231324	
17.6643	 58.252168	
17.6976	 58.240009	
17.7308	 58.233102	
17.7641	 58.247918	
17.7974	 58.242571	
17.8306	 58.252047	
17.8639	 58.250353	
17.8972	 58.260781	
17.9304	 58.263067	
17.9637	 58.252970	
17.997	 58.249480	
18.0302	 58.253386	
18.0635	 58.240399	
18.0968	 58.228062	
18.13	 58.214418	
18.1633	 58.213045	
18.1966	 58.200732	
18.2298	 58.206150	
18.2631	 58.193922	
18.2964	 58.220827	
18.3296	 58.254331	
18.3629	 58.223621	
18.3962	 58.242960	
18.4294	 58.209953	
18.4627	 58.222476	
18.496	 58.249127	
18.5292	 58.236035	
18.5625	 58.222345	
18.5958	 58.202571	
18.629	 58.202640	
18.6623	 58.224349	
18.6956	 58.236571	
18.7288	 58.231423	
18.7621	 58.215554	
18.7954	 58.228089	
18.8286	 58.228084	
18.8619	 58.219242	
18.8952	 58.208357	
18.9284	 58.213503	
18.9617	 58.223744	
18.995	 58.234805	
19.0282	 58.229897	
19.0615	 58.223189	
19.0948	 58.232529	
19.128	 58.224807	
19.1613	 58.227604	
19.1946	 58.227727	
19.2278	 58.241568	
19.2611	 58.226355	
19.2944	 58.243177	
19.3276	 58.236451	
19.3609	 58.220428	
19.3942	 58.268240	
19.4274	 58.285468	
